<svg width="88" height="88" viewBox="0 0 88 88" fill="none" xmlns="http://www.w3.org/2000/svg">
<rect width="88" height="88" rx="10" fill="#FF8100"/>
<path d="M39.875 23H24.75V60.125H40.3563C39.15 58.0358 38.5147 55.666 38.5141 53.2535C38.5135 50.8411 39.1476 48.4709 40.3527 46.3811C41.5579 44.2913 43.2916 42.5553 45.3799 41.3474C47.4682 40.1396 49.8376 39.5025 52.25 39.5V35.375H39.875V23Z" fill="white"/>
<path d="M42.625 24.75V33H50.875L42.625 24.75Z" fill="white"/>
<path d="M52.25 42.25C50.0744 42.25 47.9477 42.8951 46.1387 44.1038C44.3298 45.3125 42.9199 47.0305 42.0873 49.0405C41.2548 51.0505 41.0369 53.2622 41.4614 55.396C41.8858 57.5298 42.9334 59.4898 44.4718 61.0282C46.0102 62.5666 47.9702 63.6142 50.104 64.0386C52.2378 64.4631 54.4495 64.2452 56.4595 63.4127C58.4695 62.5801 60.1875 61.1702 61.3962 59.3613C62.6049 57.5523 63.25 55.4256 63.25 53.25C63.25 50.3326 62.0911 47.5347 60.0282 45.4718C57.9653 43.4089 55.1674 42.25 52.25 42.25ZM57.3375 52.8375C57.0805 53.0894 56.7349 53.2306 56.375 53.2306C56.0151 53.2306 55.6695 53.0894 55.4125 52.8375L53.625 51.05V58.75C53.625 59.1147 53.4801 59.4644 53.2223 59.7223C52.9644 59.9801 52.6147 60.125 52.25 60.125C51.8853 60.125 51.5356 59.9801 51.2777 59.7223C51.0199 59.4644 50.875 59.1147 50.875 58.75V51.05L49.0875 52.8375C48.8227 53.0361 48.4952 53.1325 48.165 53.109C47.8349 53.0856 47.5243 52.9438 47.2902 52.7098C47.0562 52.4757 46.9144 52.1651 46.891 51.835C46.8675 51.5048 46.9639 51.1773 47.1625 50.9125L52.25 45.825L57.3375 50.9125C57.5894 51.1695 57.7306 51.5151 57.7306 51.875C57.7306 52.2349 57.5894 52.5805 57.3375 52.8375Z" fill="white"/>
</svg>
